<?xml version="1.0" encoding="utf-8"?>
<!-- Generator: Adobe Illustrator 19.2.0, SVG Export Plug-In . SVG Version: 6.00 Build 0)  -->
<svg version="1.1" id="Layer_1" xmlns="http://www.w3.org/2000/svg" xmlns:xlink="http://www.w3.org/1999/xlink" x="0px" y="0px"
	 viewBox="0 0 1000 1000" style="enable-background:new 0 0 1000 1000;" xml:space="preserve">
<style type="text/css">
	.st0{display:none;}
	.st1{display:inline;fill:#8247E5;}
	.st2{display:inline;}
	.st3{fill:#232323;}
	.st4{display:inline;fill:#232323;}
	.st5{display:inline;fill:#547FEE;}
	.st6{display:inline;fill:#F0B90B;}
</style>
<g class="st0">
	<path class="st1" d="M1307.9,882.8l-75.7,43.7v87.4l75.7,43.7l75.7-43.7v-87.4L1307.9,882.8z M1361.1,930.8l-53.2,30.7l-53.2-30.7
		l53.2-30.7L1361.1,930.8z M1247.3,943.8l53.2,30.7v61.4l-53.2-30.7V943.8z M1315.4,1035.9v-61.4l53.2-30.7v61.4L1315.4,1035.9z"/>
	<g class="st2">
		<path class="st3" d="M1375,1066.4c-19,13.3-42.1,21.1-67,21.1c-24.9,0-48-7.8-67-21.1l-10.8,10.8c21.9,15.9,48.7,25.3,77.8,25.3
			s55.9-9.4,77.8-25.3L1375,1066.4z M1201,892.4c-15.9,21.8-25.4,48.7-25.4,77.8c0,29,9.4,55.9,25.3,77.8l10.8-10.8
			c-13.3-19-21.1-42.1-21.1-67c0-24.9,7.8-48,21.1-67L1201,892.4z M1414.9,892.4l-10.7,10.7c13.3,19,21.1,42.1,21.1,67
			c0,24.9-7.8,48-21.1,67l10.8,10.8c15.9-21.8,25.3-48.7,25.3-77.8C1440.2,941.2,1430.8,914.3,1414.9,892.4z M1307.9,837.9
			c-29,0-55.9,9.4-77.8,25.4l10.7,10.7c19-13.3,42.1-21.1,67-21.1c24.9,0,48,7.8,67,21.1l10.7-10.7
			C1363.9,847.3,1337,837.9,1307.9,837.9z"/>
	</g>
	<g class="st2">
		<rect x="1300.5" y="797.8" class="st3" width="15" height="45.8"/>
	</g>
	<g class="st2">
		<rect x="1300.5" y="1096.8" class="st3" width="15" height="45.8"/>
	</g>
	<g class="st2">
		<rect x="1135.5" y="962.7" class="st3" width="45.8" height="15"/>
	</g>
	<g class="st2">
		<rect x="1434.6" y="962.7" class="st3" width="45.8" height="15"/>
	</g>
	<polygon class="st4" points="1383.1,905.7 1372.5,905.7 1372.5,895.1 1415.9,851.7 1426.5,862.3 	"/>
	<polygon class="st4" points="1232.8,905.7 1189.4,862.3 1200,851.7 1243.4,895.1 1243.4,905.7 	"/>
	<polygon class="st4" points="1415.9,1088.7 1372.5,1045.3 1372.5,1034.7 1383.1,1034.7 1426.5,1078.1 	"/>
	<polygon class="st4" points="1200,1088.7 1189.4,1078.1 1232.8,1034.7 1243.4,1034.7 1243.4,1045.3 	"/>
</g>
<g>
	<path class="st3" d="M500,375.2l-108,62.4v124.8l108,62.4l108-62.4V437.6L500,375.2z M575.9,443.8L500,487.6l-75.9-43.8L500,400
		L575.9,443.8z M413.4,462.3l75.9,43.8v87.7L413.4,550V462.3z M510.7,593.9v-87.7l75.9-43.8V550L510.7,593.9z"/>
	<g>
		<path class="st3" d="M595.7,637.4c-27.1,19-60.1,30.1-95.7,30.1s-68.6-11.2-95.7-30.1l-15.4,15.4c31.2,22.7,69.6,36.2,111.1,36.2
			s79.9-13.4,111.1-36.2L595.7,637.4z M347.3,389c-22.8,31.2-36.2,69.6-36.2,111.1s13.4,79.9,36.2,111.1l15.4-15.4
			c-19-27.1-30.1-60.1-30.1-95.7s11.1-68.6,30.1-95.7L347.3,389z M652.7,389l-15.3,15.3c19,27.2,30.1,60.2,30.1,95.7
			s-11.1,68.6-30.1,95.7l15.4,15.4c22.7-31.2,36.2-69.6,36.2-111.1S675.4,420.2,652.7,389z M500,311.1c-41.5,0-79.9,13.4-111.1,36.2
			l15.3,15.3c27.1-19,60.1-30.1,95.7-30.1s68.6,11.2,95.7,30.1l15.3-15.3C579.9,324.5,541.5,311.1,500,311.1z"/>
	</g>
	<g>
		<rect x="489.3" y="253.8" class="st3" width="21.4" height="65.3"/>
	</g>
	<g>
		<rect x="489.3" y="680.9" class="st3" width="21.4" height="65.3"/>
	</g>
	<g>
		<rect x="253.8" y="489.3" class="st3" width="65.3" height="21.4"/>
	</g>
	<g>
		<rect x="680.9" y="489.3" class="st3" width="65.3" height="21.4"/>
	</g>
	<polygon class="st3" points="607.3,407.9 592.1,407.9 592.1,392.7 654.1,330.7 669.3,345.9 	"/>
	<polygon class="st3" points="392.7,407.9 330.7,345.9 345.9,330.7 407.9,392.7 407.9,407.9 	"/>
	<polygon class="st3" points="654.1,669.3 592.1,607.3 592.1,592.1 607.3,592.1 669.3,654.1 	"/>
	<polygon class="st3" points="345.9,669.3 330.7,654.1 392.7,592.1 407.9,592.1 407.9,607.3 	"/>
</g>
<g class="st0">
	<path class="st5" d="M848.4,1594.7l-75.7,43.7v87.4l75.7,43.7l75.7-43.7v-87.4L848.4,1594.7z M901.6,1642.8l-53.2,30.7l-53.2-30.7
		l53.2-30.7L901.6,1642.8z M787.7,1655.7l53.2,30.7v61.4l-53.2-30.7V1655.7z M855.9,1747.8v-61.4l53.2-30.7v61.4L855.9,1747.8z"/>
	<g class="st2">
		<path class="st3" d="M915.4,1778.3c-19,13.3-42.1,21.1-67,21.1s-48-7.8-67-21.1l-10.8,10.8c21.9,15.9,48.7,25.3,77.8,25.3
			c29,0,55.9-9.4,77.8-25.3L915.4,1778.3z M741.5,1604.4c-15.9,21.8-25.4,48.7-25.4,77.8s9.4,55.9,25.3,77.8l10.8-10.8
			c-13.3-19-21.1-42.1-21.1-67s7.8-48,21.1-67L741.5,1604.4z M955.3,1604.4l-10.7,10.7c13.3,19,21.1,42.1,21.1,67s-7.8,48-21.1,67
			l10.8,10.8c15.9-21.8,25.3-48.7,25.3-77.8S971.3,1626.2,955.3,1604.4z M848.4,1549.8c-29,0-55.9,9.4-77.8,25.4l10.7,10.7
			c19-13.3,42.1-21.1,67-21.1s48,7.8,67,21.1l10.7-10.7C904.3,1559.2,877.4,1549.8,848.4,1549.8z"/>
	</g>
	<g class="st2">
		<rect x="840.9" y="1509.7" class="st3" width="15" height="45.8"/>
	</g>
	<g class="st2">
		<rect x="840.9" y="1808.8" class="st3" width="15" height="45.8"/>
	</g>
	<g class="st2">
		<rect x="676" y="1674.6" class="st3" width="45.8" height="15"/>
	</g>
	<g class="st2">
		<rect x="975" y="1674.6" class="st3" width="45.8" height="15"/>
	</g>
	<polygon class="st4" points="923.5,1617.6 912.9,1617.6 912.9,1607 956.3,1563.6 966.9,1574.2 	"/>
	<polygon class="st4" points="773.3,1617.6 729.9,1574.2 740.5,1563.6 783.9,1607 783.9,1617.6 	"/>
	<polygon class="st4" points="956.3,1800.6 912.9,1757.2 912.9,1746.6 923.5,1746.6 966.9,1790 	"/>
	<polygon class="st4" points="740.5,1800.6 729.9,1790 773.3,1746.6 783.9,1746.6 783.9,1757.2 	"/>
</g>
<g class="st0">
	<path class="st6" d="M522.9,1272.8l-75.7,43.7v87.4l75.7,43.7l75.7-43.7v-87.4L522.9,1272.8z M576,1320.8l-53.2,30.7l-53.2-30.7
		l53.2-30.7L576,1320.8z M462.2,1333.8l53.2,30.7v61.4l-53.2-30.7V1333.8z M530.4,1425.9v-61.4l53.2-30.7v61.4L530.4,1425.9z"/>
	<g class="st2">
		<path class="st3" d="M589.9,1456.4c-19,13.3-42.1,21.1-67,21.1c-24.9,0-48-7.8-67-21.1l-10.8,10.8c21.9,15.9,48.7,25.3,77.8,25.3
			c29,0,55.9-9.4,77.8-25.3L589.9,1456.4z M416,1282.4c-15.9,21.8-25.4,48.7-25.4,77.8s9.4,55.9,25.3,77.8l10.8-10.8
			c-13.3-19-21.1-42.1-21.1-67s7.8-48,21.1-67L416,1282.4z M629.8,1282.4l-10.7,10.7c13.3,19,21.1,42.1,21.1,67s-7.8,48-21.1,67
			l10.8,10.8c15.9-21.8,25.3-48.7,25.3-77.8S645.7,1304.3,629.8,1282.4z M522.9,1227.9c-29,0-55.9,9.4-77.8,25.4l10.7,10.7
			c19-13.3,42.1-21.1,67-21.1c24.9,0,48,7.8,67,21.1l10.7-10.7C578.8,1237.3,551.9,1227.9,522.9,1227.9z"/>
	</g>
	<g class="st2">
		<rect x="515.4" y="1187.8" class="st3" width="15" height="45.8"/>
	</g>
	<g class="st2">
		<rect x="515.4" y="1486.8" class="st3" width="15" height="45.8"/>
	</g>
	<g class="st2">
		<rect x="350.5" y="1352.7" class="st3" width="45.8" height="15"/>
	</g>
	<g class="st2">
		<rect x="649.5" y="1352.7" class="st3" width="45.8" height="15"/>
	</g>
	<polygon class="st4" points="598,1295.7 587.4,1295.7 587.4,1285.1 630.8,1241.7 641.4,1252.3 	"/>
	<polygon class="st4" points="447.8,1295.7 404.4,1252.3 415,1241.7 458.4,1285.1 458.4,1295.7 	"/>
	<polygon class="st4" points="630.8,1478.7 587.4,1435.3 587.4,1424.7 598,1424.7 641.4,1468.1 	"/>
	<polygon class="st4" points="415,1478.7 404.4,1468.1 447.8,1424.7 458.4,1424.7 458.4,1435.3 	"/>
</g>
</svg>
